0
SECTION
2
HEADER
9
$INSUNITS
70
4
9
$ACADVER
1
AC1014
9
$HANDSEED
5
FFFF
0
ENDSEC
0
SECTION
2
TABLES
0
TABLE
2
VPORT
5
8
100
AcDbSymbolTable
0
ENDTAB
0
TABLE
2
LTYPE
5
5
100
AcDbSymbolTable
0
LTYPE
5
14
100
AcDbSymbolTableRecord
100
AcDbLinetypeTableRecord
2
BYBLOCK
70
0
0
LTYPE
5
15
100
AcDbSymbolTableRecord
100
AcDbLinetypeTableRecord
2
BYLAYER
70
0
0
ENDTAB
0
TABLE
2
LAYER
5
2
100
AcDbSymbolTable
70
2
0
LAYER
5
50
100
AcDbSymbolTableRecord
100
AcDbLayerTableRecord
2
0
70
0
6
CONTINUOUS
0
ENDTAB
0
TABLE
2
STYLE
5
3
100
AcDbSymbolTable
70
1
0
STYLE
5
11
100
AcDbSymbolTableRecord
100
AcDbTextStyleTableRecord
2
STANDARD
70
0
0
ENDTAB
0
TABLE
2
VIEW
5
6
100
AcDbSymbolTable
70
0
0
ENDTAB
0
TABLE
2
UCS
5
7
100
AcDbSymbolTable
70
0
0
ENDTAB
0
TABLE
2
APPID
5
9
100
AcDbSymbolTable
70
2
0
APPID
5
12
100
AcDbSymbolTableRecord
100
AcDbRegAppTableRecord
2
ACAD
70
0
0
ENDTAB
0
TABLE
2
DIMSTYLE
5
A
100
AcDbSymbolTable
70
1
0
ENDTAB
0
TABLE
2
BLOCK_RECORD
5
1
100
AcDbSymbolTable
70
1
0
BLOCK_RECORD
5
1F
100
AcDbSymbolTableRecord
100
AcDbBlockTableRecord
2
*MODEL_SPACE
0
BLOCK_RECORD
5
1B
100
AcDbSymbolTableRecord
100
AcDbBlockTableRecord
2
*PAPER_SPACE
0
ENDTAB
0
ENDSEC
0
SECTION
2
BLOCKS
0
BLOCK
5
20
100
AcDbEntity
100
AcDbBlockBegin
2
*MODEL_SPACE
0
ENDBLK
5
21
100
AcDbEntity
100
AcDbBlockEnd
0
BLOCK
5
1C
100
AcDbEntity
100
AcDbBlockBegin
2
*PAPER_SPACE
0
ENDBLK
5
1D
100
AcDbEntity
100
AcDbBlockEnd
0
ENDSEC
0
SECTION
2
ENTITIES
0
LINE
5
100
100
AcDbEntity
8
0
100
AcDbLine
10
-4.6945659410166094
20
-6.8772996608732884
30
0
11
-6.2242000631725913
21
-2.169569905212263
31
0
0
LINE
5
101
100
AcDbEntity
8
0
100
AcDbLine
10
-6.2242000631725913
20
-2.169569905212263
30
0
11
-3.3044565581464562
21
-1.2208877324811727
31
0
0
LINE
5
102
100
AcDbEntity
8
0
100
AcDbLine
10
-1.7041631995954232
20
-2.0362779253198369
30
0
11
7.7146747889529248
21
-31.024480541996216
31
0
0
LINE
5
103
100
AcDbEntity
8
0
100
AcDbLine
10
6.899284596114251
20
-32.624773900547247
30
0
11
-7.5948167122239587
21
-37.334192894821456
31
0
0
LINE
5
104
100
AcDbEntity
8
0
100
AcDbLine
10
-9.1951100707749873
20
-36.518802701982793
30
0
11
-18.613948059323334
21
-7.5306000853064115
31
0
0
LINE
5
105
100
AcDbEntity
8
0
100
AcDbLine
10
-17.798557866484664
20
-5.9303067267553802
30
0
11
-14.878814361458527
21
-4.9816245540242896
31
0
0
LINE
5
106
100
AcDbEntity
8
0
100
AcDbLine
10
-14.878814361458527
20
-4.9816245540242896
30
0
11
-13.34918023930255
21
-9.6893543096853136
31
0
0
LINE
5
107
100
AcDbEntity
8
0
100
AcDbLine
10
-63.100000000000009
20
-17.399999999999999
30
0
11
-77.900000000000006
21
-17.399999999999999
31
0
0
LINE
5
108
100
AcDbEntity
8
0
100
AcDbLine
10
-77.900000000000006
20
-17.399999999999999
30
0
11
-77.900000000000006
21
-3.600000000000001
31
0
0
LINE
5
109
100
AcDbEntity
8
0
100
AcDbLine
10
-63.100000000000009
20
-3.6000000000000005
30
0
11
-63.100000000000009
21
-17.399999999999999
31
0
0
LINE
5
110
100
AcDbEntity
8
0
100
AcDbLine
10
-77.900000000000006
20
-3.6000000000000005
30
0
11
-63.100000000000009
21
-3.6000000000000005
31
0
0
CIRCLE
5
111
100
AcDbEntity
8
0
100
AcDbCircle
10
-123.40000000000002
20
-21.600000000000001
30
0
40
1.1499999999999999
210
0
220
0
230
1
0
CIRCLE
5
112
100
AcDbEntity
8
0
100
AcDbCircle
10
-123.40000000000003
20
-65.40000000000002
30
0
40
1.1499999999999999
210
0
220
0
230
1
0
CIRCLE
5
113
100
AcDbEntity
8
0
100
AcDbCircle
10
-66.899999999999991
20
-57.400000000000006
30
0
40
1.1499999999999999
210
0
220
0
230
1
0
CIRCLE
5
114
100
AcDbEntity
8
0
100
AcDbCircle
10
9.0605113792482115
20
-62.265163913918485
30
0
40
1.1499999999999999
210
0
220
0
230
1
0
CIRCLE
5
115
100
AcDbEntity
8
0
100
AcDbCircle
10
-87.40000000000002
20
-2.6000000000000001
30
0
40
1.1499999999999999
210
0
220
0
230
1
0
CIRCLE
5
116
100
AcDbEntity
8
0
100
AcDbCircle
10
-48.472079074775387
20
-2.6000000000000005
30
0
40
1.1499999999999999
210
0
220
0
230
1
0
CIRCLE
5
117
100
AcDbEntity
8
0
100
AcDbCircle
10
3.0866701947241983
20
-0.62171346734703492
30
0
40
1.1499999999999999
210
0
220
0
230
1
0
CIRCLE
5
118
100
AcDbEntity
8
0
100
AcDbCircle
10
-21.600000000000005
20
-56.923566303048609
30
0
40
1.1499999999999999
210
0
220
0
230
1
0
LINE
5
119
100
AcDbEntity
8
0
100
AcDbLine
10
19.658254772794393
20
-40.297568586933693
30
0
11
25.857084680897771
21
-59.375605344853739
31
0
0
SPLINE
5
120
100
AcDbEntity
8
0
100
AcDbSpline
70
0
71
3
72
10
73
6
74
0
42
0.000000001
43
0.0000000001
44
0.0000000001
40
0
40
0
40
0
40
0
40
1.3857592697739431
40
1.3857592697739431
40
2.4290109773479105
40
2.4290109773479105
40
2.4290109773479105
40
2.4290109773479105
10
25.857084680897771
20
-59.375605344853739
30
0
10
21.426454191278708
20
-60.681935937543003
30
0
10
16.880551301850442
20
-62.29332423271579
30
0
10
9.5742591450741603
20
-65.84615169778651
30
0
10
6.5103966173797669
20
-67.674195739682105
30
0
10
3.8097643713844951
20
-69.896583546035998
30
0
0
LINE
5
121
100
AcDbEntity
8
0
100
AcDbLine
10
-25.100000000000001
20
-6.1000000000000014
30
0
11
5.333808521444916
21
3.7885438199983259
31
0
0
ARC
5
122
100
AcDbEntity
8
0
100
AcDbCircle
10
-42.099999999999994
20
-0.099999999999999534
30
0
40
0.99999999999999645
210
0
220
-0
230
1
100
AcDbArc
50
0
51
90
0
LINE
5
123
100
AcDbEntity
8
0
100
AcDbLine
10
-41.099999999999994
20
-0.099999999999997993
30
0
11
-41.099999999999994
21
-5.0999999999999996
31
0
0
ARC
5
124
100
AcDbEntity
8
0
100
AcDbCircle
10
-40.099999999999994
20
-5.1000000000000014
30
0
40
0.99999999999999645
210
0
220
0
230
1
100
AcDbArc
50
180
51
270
0
LINE
5
125
100
AcDbEntity
8
0
100
AcDbLine
10
-40.099999999999994
20
-6.0999999999999979
30
0
11
-25.100000000000001
21
-6.1000000000000014
31
0
0
SPLINE
5
126
100
AcDbEntity
8
0
100
AcDbSpline
70
0
71
3
72
24
73
20
74
0
42
0.000000001
43
0.0000000001
44
0.0000000001
40
0
40
0
40
0
40
0
40
1.3496699231783074
40
1.3496699231783074
40
2.9675240684647406
40
2.9675240684647406
40
3.6745526245872404
40
3.6745526245872404
40
4.0896778660393842
40
4.0896778660393842
40
4.5087343403076963
40
4.5087343403076963
40
5.1421690525826067
40
5.1421690525826067
40
6.7843237055187471
40
6.7843237055187471
40
8.6955592614751875
40
8.6955592614751875
40
10.698802316107992
40
10.698802316107992
40
10.698802316107992
40
10.698802316107992
10
3.8097643713842371
20
-69.896583546036211
30
0
10
0.3358785912729273
20
-72.755292431644023
30
0
10
-1.7876581294942204
20
-75.643218275121797
30
0
10
-4.9730749124985234
20
-81.480704016817654
30
0
10
-5.721005477941401
20
-84.305568070450164
30
0
10
-6.985778955388767
20
-87.127241539998892
30
0
10
-7.3936155869334632
20
-87.8164918797453
30
0
10
-8.2310955231656919
20
-88.600829008392893
30
0
10
-8.5767887131376526
20
-88.818568990977852
30
0
10
-9.3758126281196557
20
-89.115923574163844
30
0
10
-9.8186702713903813
20
-89.19029241682351
30
0
10
-11.05824131625708
20
-89.220771288200339
30
0
10
-11.926455769568385
20
-89.096599660991586
30
0
10
-15.599828592295657
20
-88.230027297124124
30
0
10
-19.212126430345883
20
-86.834049645601368
30
0
10
-29.309587902289799
20
-83.547020480437851
30
0
10
-35.394920351009304
20
-81.849821724680567
30
0
10
-50.568965792157698
20
-79.809589032065958
30
0
10
-57.302487256415745
20
-79.882049414024578
30
0
10
-63.400000000000006
20
-79.915801927207298
30
0
0
SPLINE
5
127
100
AcDbEntity
8
0
100
AcDbSpline
70
0
71
3
72
12
73
8
74
0
42
0.000000001
43
0.0000000001
44
0.0000000001
40
0
40
0
40
0
40
0
40
1.7645434278971321
40
1.7645434278971321
40
4.0344692763306629
40
4.0344692763306629
40
6.4844803606599397
40
6.4844803606599397
40
6.4844803606599397
40
6.4844803606599397
10
-63.399999999999999
20
-79.915801927207298
30
0
10
-69.281721315301098
20
-79.948359936444845
30
0
10
-74.459317938401227
20
-79.943928127484824
30
0
10
-87.682772633034034
20
-77.633208686966441
30
0
10
-93.280514468210612
20
-75.165349257431643
30
0
10
-109.57052223870632
20
-70.638568381329691
30
0
10
-119.39782634251134
20
-68.970618852339314
30
0
10
-134.90441326879028
20
-68.902183449755455
30
0
0
SPLINE
5
128
100
AcDbEntity
8
0
100
AcDbSpline
70
0
71
3
72
14
73
10
74
0
42
0.000000001
43
0.0000000001
44
0.0000000001
40
0
40
0
40
0
40
0
40
0.03906444733869216
40
0.03906444733869216
40
0.078128894677385319
40
0.078128894677385319
40
0.11719334201607777
40
0.11719334201607777
40
0.15713714870731085
40
0.15713714870731085
40
0.15713714870731085
40
0.15713714870731085
10
-135.90000000000006
20
-67.9021931882736
30
0
10
-135.90000000000006
20
-68.0324080127359
30
0
10
-135.87456614923545
20
-68.161377912503781
30
0
10
-135.77569393656555
20
-68.402309204785965
30
0
10
-135.70320084690292
20
-68.511967162828341
30
0
10
-135.52026153820501
20
-68.697323067433857
30
0
10
-135.41156431867049
20
-68.771248910522189
30
0
10
-135.16925432784743
20
-68.874422569742222
30
0
10
-135.03755799444943
20
-68.901595840570693
30
0
10
-134.90441326879028
20
-68.902183449755469
30
0
0
LINE
5
129
100
AcDbEntity
8
0
100
AcDbLine
10
-135.90000000000001
20
-67.902191954479107
30
0
11
-135.90000000000001
21
-19.100000000000009
31
0
0
ARC
5
130
100
AcDbEntity
8
0
100
AcDbCircle
10
-134.90000000000001
20
-19.100000000000009
30
0
40
1.0000000000000009
210
0
220
-0
230
1
100
AcDbArc
50
90
51
180
0
LINE
5
131
100
AcDbEntity
8
0
100
AcDbLine
10
-134.90000000000001
20
-18.100000000000009
30
0
11
-118.90000000000002
21
-18.100000000000009
31
0
0
ARC
5
132
100
AcDbEntity
8
0
100
AcDbCircle
10
-118.90000000000002
20
-17.100000000000005
30
0
40
1.0000000000000031
210
0
220
0
230
1
100
AcDbArc
50
-90
51
0
0
LINE
5
133
100
AcDbEntity
8
0
100
AcDbLine
10
-117.90000000000003
20
-17.100000000000005
30
0
11
-117.90000000000003
21
-7.100000000000013
31
0
0
ARC
5
134
100
AcDbEntity
8
0
100
AcDbCircle
10
-116.90000000000003
20
-7.1000000000000121
30
0
40
0.99999999999999978
210
0
220
-0
230
1
100
AcDbArc
50
90
51
180
0
LINE
5
135
100
AcDbEntity
8
0
100
AcDbLine
10
-116.90000000000003
20
-6.1000000000000121
30
0
11
-100.89999999999998
21
-6.0999999999999961
31
0
0
ARC
5
136
100
AcDbEntity
8
0
100
AcDbCircle
10
-100.89999999999998
20
-5.0999999999999943
30
0
40
1.000000000000002
210
0
220
0
230
1
100
AcDbArc
50
270
51
360
0
LINE
5
137
100
AcDbEntity
8
0
100
AcDbLine
10
-99.899999999999977
20
-5.0999999999999979
30
0
11
-99.899999999999977
21
-0.10000000000000009
31
0
0
ARC
5
138
100
AcDbEntity
8
0
100
AcDbCircle
10
-98.899999999999991
20
-0.099999999999999395
30
0
40
0.99999999999999978
210
0
220
-0
230
1
100
AcDbArc
50
90
51
180
0
LINE
5
139
100
AcDbEntity
8
0
100
AcDbLine
10
-98.899999999999991
20
0.90000000000000036
30
0
11
-42.099999999999994
21
0.90000000000000058
31
0
0
LINE
5
140
100
AcDbEntity
8
0
100
AcDbLine
10
5.333808521444916
20
3.7885438199983259
30
0
11
11.067582329171197
21
-13.8581974339283
31
0
0
LINE
5
141
100
AcDbEntity
8
0
100
AcDbLine
10
11.067582329171197
20
-13.8581974339283
30
0
11
19.658254772794393
21
-40.297568586933693
31
0
0
LINE
5
142
100
AcDbEntity
8
0
100
AcDbLine
10
17.129098676686617
20
-42.223376552856834
30
0
11
15.702513902243885
21
-42.686902044419249
31
0
0
LINE
5
143
100
AcDbEntity
8
0
100
AcDbLine
10
16.82008168231167
20
-41.27232003656168
30
0
11
8.198507539250647
21
-14.737843231926862
31
0
0
LINE
5
144
100
AcDbEntity
8
0
100
AcDbLine
10
6.4629057704329673
20
-14.250312207194124
30
0
11
7.8894905448756987
21
-13.786786715631703
31
0
0
LWPOLYLINE
5
145
100
AcDbEntity
8
0
100
AcDbPolyline
90
10
70
1
43
0.0
10
17.010292985570707
20
-41.210516637686695
10
8.3887188425096841
20
-14.676039833051881
10
8.0797018481347322
20
-13.724983316756711
42
0.4142135623730957
10
7.449665092799683
20
-13.40396355579661
10
5.5475520602093766
20
-14.021997544546497
42
0.41421356237309975
10
5.2265322992492731
20
-14.652034299881551
10
14.480747255509387
20
-43.133579320244387
42
0.41421356237310691
10
15.110784010844437
20
-43.454599081204478
10
17.012897043434737
20
-42.836565092454592
42
0.41421356237310736
10
17.333916804394836
20
-42.206528337119536
0
ENDSEC
0
SECTION
2
OBJECTS
0
DICTIONARY
5
C
100
AcDbDictionary
3
ACAD_GROUP
350
D
3
ACAD_MLINESTYLE
350
17
0
DICTIONARY
5
D
100
AcDbDictionary
0
DICTIONARY
5
1A
330
C
100
AcDbDictionary
0
DICTIONARY
5
17
100
AcDbDictionary
0
ENDSEC
0
EOF
