0
SECTION
2
HEADER
9
$INSUNITS
70
4
9
$ACADVER
1
AC1014
9
$HANDSEED
5
FFFF
0
ENDSEC
0
SECTION
2
TABLES
0
TABLE
2
VPORT
5
8
100
AcDbSymbolTable
0
ENDTAB
0
TABLE
2
LTYPE
5
5
100
AcDbSymbolTable
0
LTYPE
5
14
100
AcDbSymbolTableRecord
100
AcDbLinetypeTableRecord
2
BYBLOCK
70
0
0
LTYPE
5
15
100
AcDbSymbolTableRecord
100
AcDbLinetypeTableRecord
2
BYLAYER
70
0
0
ENDTAB
0
TABLE
2
LAYER
5
2
100
AcDbSymbolTable
70
2
0
LAYER
5
50
100
AcDbSymbolTableRecord
100
AcDbLayerTableRecord
2
0
70
0
6
CONTINUOUS
0
ENDTAB
0
TABLE
2
STYLE
5
3
100
AcDbSymbolTable
70
1
0
STYLE
5
11
100
AcDbSymbolTableRecord
100
AcDbTextStyleTableRecord
2
STANDARD
70
0
0
ENDTAB
0
TABLE
2
VIEW
5
6
100
AcDbSymbolTable
70
0
0
ENDTAB
0
TABLE
2
UCS
5
7
100
AcDbSymbolTable
70
0
0
ENDTAB
0
TABLE
2
APPID
5
9
100
AcDbSymbolTable
70
2
0
APPID
5
12
100
AcDbSymbolTableRecord
100
AcDbRegAppTableRecord
2
ACAD
70
0
0
ENDTAB
0
TABLE
2
DIMSTYLE
5
A
100
AcDbSymbolTable
70
1
0
ENDTAB
0
TABLE
2
BLOCK_RECORD
5
1
100
AcDbSymbolTable
70
1
0
BLOCK_RECORD
5
1F
100
AcDbSymbolTableRecord
100
AcDbBlockTableRecord
2
*MODEL_SPACE
0
BLOCK_RECORD
5
1B
100
AcDbSymbolTableRecord
100
AcDbBlockTableRecord
2
*PAPER_SPACE
0
ENDTAB
0
ENDSEC
0
SECTION
2
BLOCKS
0
BLOCK
5
20
100
AcDbEntity
100
AcDbBlockBegin
2
*MODEL_SPACE
0
ENDBLK
5
21
100
AcDbEntity
100
AcDbBlockEnd
0
BLOCK
5
1C
100
AcDbEntity
100
AcDbBlockBegin
2
*PAPER_SPACE
0
ENDBLK
5
1D
100
AcDbEntity
100
AcDbBlockEnd
0
ENDSEC
0
SECTION
2
ENTITIES
0
LINE
5
100
100
AcDbEntity
8
0
100
AcDbLine
10
-63.100000000000009
20
-17.399999999999999
30
0
11
-77.900000000000006
21
-17.399999999999999
31
0
0
LINE
5
101
100
AcDbEntity
8
0
100
AcDbLine
10
-77.900000000000006
20
-17.399999999999999
30
0
11
-77.900000000000006
21
-3.600000000000001
31
0
0
LINE
5
102
100
AcDbEntity
8
0
100
AcDbLine
10
-63.100000000000009
20
-3.6000000000000005
30
0
11
-63.100000000000009
21
-17.399999999999999
31
0
0
LINE
5
103
100
AcDbEntity
8
0
100
AcDbLine
10
-77.900000000000006
20
-3.6000000000000005
30
0
11
-63.100000000000009
21
-3.6000000000000005
31
0
0
CIRCLE
5
104
100
AcDbEntity
8
0
100
AcDbCircle
10
-123.40000000000002
20
-21.600000000000001
30
0
40
1.1499999999999999
210
0
220
0
230
1
0
CIRCLE
5
105
100
AcDbEntity
8
0
100
AcDbCircle
10
-123.40000000000003
20
-65.40000000000002
30
0
40
1.1499999999999999
210
0
220
0
230
1
0
CIRCLE
5
106
100
AcDbEntity
8
0
100
AcDbCircle
10
-65.399999999999991
20
-57.400000000000006
30
0
40
1.1499999999999999
210
0
220
0
230
1
0
CIRCLE
5
107
100
AcDbEntity
8
0
100
AcDbCircle
10
7.6899567163555362
20
-62.664771047757753
30
0
40
1.1499999999999999
210
0
220
0
230
1
0
CIRCLE
5
108
100
AcDbEntity
8
0
100
AcDbCircle
10
-87.40000000000002
20
-2.6000000000000001
30
0
40
1.1499999999999999
210
0
220
0
230
1
0
CIRCLE
5
109
100
AcDbEntity
8
0
100
AcDbCircle
10
-43.100000000000009
20
-2.6000000000000014
30
0
40
1.1499999999999999
210
0
220
0
230
1
0
CIRCLE
5
110
100
AcDbEntity
8
0
100
AcDbCircle
10
2.8783101940382623
20
7.358649912030879
30
0
40
1.1499999999999999
210
0
220
0
230
1
0
CIRCLE
5
111
100
AcDbEntity
8
0
100
AcDbCircle
10
-21.600000000000001
20
-56.377611137621358
30
0
40
1.1499999999999999
210
0
220
0
230
1
0
LINE
5
112
100
AcDbEntity
8
0
100
AcDbLine
10
22.037067242080333
20
-35.046287061714885
30
0
11
29.595614184611545
21
-55.813224110208886
31
0
0
SPLINE
5
113
100
AcDbEntity
8
0
100
AcDbSpline
70
0
71
3
72
10
73
6
74
0
42
0.000000001
43
0.0000000001
44
0.0000000001
40
0
40
0
40
0
40
0
40
1.6499485565371896
40
1.6499485565371896
40
2.823951158144034
40
2.823951158144034
40
2.823951158144034
40
2.823951158144034
10
29.595614184595462
20
-55.813224110164668
30
0
10
24.427270331030165
20
-57.693738821730506
30
0
10
19.015165956768449
20
-59.96189098693619
30
0
10
10.756542391409898
20
-64.58903320830143
30
0
10
7.361267677078609
20
-66.875663032800873
30
0
10
4.4934787998722054
20
-69.599479980153347
30
0
0
LINE
5
114
100
AcDbEntity
8
0
100
AcDbLine
10
-25.09999999999998
20
0.89999999999999858
30
0
11
4.9701638651647562
21
11.844644586378383
31
0
0
SPLINE
5
115
100
AcDbEntity
8
0
100
AcDbSpline
70
0
71
3
72
24
73
20
74
0
42
0.000000001
43
0.0000000001
44
0.0000000001
40
0
40
0
40
0
40
0
40
1.342832842020306
40
1.342832842020306
40
2.9992232897549878
40
2.9992232897549878
40
3.5047904836799488
40
3.5047904836799488
40
3.9228288924389361
40
3.9228288924389361
40
4.3903679059097964
40
4.3903679059097964
40
5.165103370524518
40
5.165103370524518
40
7.159455461956453
40
7.159455461956453
40
9.4034231421586938
40
9.4034231421586938
40
11.722215611116118
40
11.722215611116118
40
11.722215611116118
40
11.722215611116118
10
4.4934787998687717
20
-69.599479980156588
30
0
10
1.2479728158863945
20
-72.682051459588152
30
0
10
-0.63073875409666136
20
-75.660677318330173
30
0
10
-3.4362502343311703
20
-81.773805424800742
30
0
10
-3.9884077585546192
20
-84.673805048428449
30
0
10
-5.3353761824399584
20
-87.245695817538348
30
0
10
-5.6999671849081626
20
-87.770215142946611
30
0
10
-6.5380668737743939
20
-88.531504023376968
30
0
10
-6.9640759052071726
20
-88.785844732187911
30
0
10
-7.9859369999216465
20
-89.148445386876148
30
0
10
-8.5594551414823883
20
-89.222378230919787
30
0
10
-10.075497476083157
20
-89.237028687733257
30
0
10
-11.154545433214729
20
-89.059988927191753
30
0
10
-15.53545612217337
20
-87.936843131495664
30
0
10
-19.640657011679036
20
-86.223028514978381
30
0
10
-30.34206783431738
20
-82.635339492173742
30
0
10
-35.932836950770024
20
-81.184251598382644
30
0
10
-49.659001804628531
20
-79.697382701243541
30
0
10
-55.934425071509388
20
-79.921969783388647
30
0
10
-61.900000000000006
20
-79.964099921370234
30
0
0
SPLINE
5
116
100
AcDbEntity
8
0
100
AcDbSpline
70
0
71
3
72
12
73
8
74
0
42
0.000000001
43
0.0000000001
44
0.0000000001
40
0
40
0
40
0
40
0
40
1.9821594389315969
40
1.9821594389315969
40
3.9074754043578008
40
3.9074754043578008
40
5.969686214061996
40
5.969686214061996
40
5.969686214061996
40
5.969686214061996
10
-61.900000000000006
20
-79.96409992137022
30
0
10
-68.50703336959765
20
-80.010760173038562
30
0
10
-73.876687932056427
20
-79.828081924848973
30
0
10
-87.591069979283105
20
-76.684373254744258
30
0
10
-93.49337231890604
20
-74.350969027061311
30
0
10
-110.40652877837651
20
-70.306073023687873
30
0
10
-120.45256829655932
20
-68.961034775469727
30
0
10
-134.90408347256607
20
-68.902021917696572
30
0
0
SPLINE
5
117
100
AcDbEntity
8
0
100
AcDbSpline
70
0
71
3
72
14
73
10
74
0
42
0.000000001
43
0.0000000001
44
0.0000000001
40
0
40
0
40
0
40
0
40
0.039064447338693235
40
0.039064447338693235
40
0.07812889467738543
40
0.07812889467738543
40
0.11719334201607787
40
0.11719334201607787
40
0.15717045367283369
40
0.15717045367283369
40
0.15717045367283369
40
0.15717045367283369
10
-135.90000000000006
20
-67.902030255105416
30
0
10
-135.90000000000006
20
-68.032245079567716
30
0
10
-135.87456614923542
20
-68.161214979335611
30
0
10
-135.77569393656552
20
-68.402146271617795
30
0
10
-135.70320084690292
20
-68.511804229660157
30
0
10
-135.52026153820498
20
-68.697160134265673
30
0
10
-135.41156431867049
20
-68.771085977354005
30
0
10
-135.16915218502714
20
-68.874303128171292
30
0
10
-135.03733940040351
20
-68.901477766234166
30
0
10
-134.90408347256607
20
-68.902021917696558
30
0
0
LINE
5
118
100
AcDbEntity
8
0
100
AcDbLine
10
-135.90000000000006
20
-67.902030255105416
30
0
11
-135.90000000000001
21
-19.100000000000009
31
0
0
ARC
5
119
100
AcDbEntity
8
0
100
AcDbCircle
10
-134.90000000000001
20
-19.100000000000009
30
0
40
1.0000000000000009
210
0
220
-0
230
1
100
AcDbArc
50
90
51
180
0
LINE
5
120
100
AcDbEntity
8
0
100
AcDbLine
10
-134.90000000000001
20
-18.100000000000009
30
0
11
-118.90000000000002
21
-18.100000000000009
31
0
0
ARC
5
121
100
AcDbEntity
8
0
100
AcDbCircle
10
-118.90000000000002
20
-17.100000000000005
30
0
40
1.0000000000000031
210
0
220
0
230
1
100
AcDbArc
50
-90
51
0
0
LINE
5
122
100
AcDbEntity
8
0
100
AcDbLine
10
-117.90000000000003
20
-17.100000000000005
30
0
11
-117.90000000000003
21
-7.100000000000013
31
0
0
ARC
5
123
100
AcDbEntity
8
0
100
AcDbCircle
10
-116.90000000000003
20
-7.1000000000000121
30
0
40
0.99999999999999978
210
0
220
-0
230
1
100
AcDbArc
50
90
51
180
0
LINE
5
124
100
AcDbEntity
8
0
100
AcDbLine
10
-116.90000000000003
20
-6.1000000000000121
30
0
11
-100.89999999999998
21
-6.0999999999999961
31
0
0
ARC
5
125
100
AcDbEntity
8
0
100
AcDbCircle
10
-100.89999999999998
20
-5.0999999999999943
30
0
40
1.000000000000002
210
0
220
0
230
1
100
AcDbArc
50
270
51
360
0
LINE
5
126
100
AcDbEntity
8
0
100
AcDbLine
10
-99.899999999999977
20
-5.0999999999999979
30
0
11
-99.899999999999977
21
-0.10000000000000009
31
0
0
ARC
5
127
100
AcDbEntity
8
0
100
AcDbCircle
10
-98.899999999999991
20
-0.099999999999999395
30
0
40
0.99999999999999978
210
0
220
-0
230
1
100
AcDbArc
50
90
51
180
0
LINE
5
128
100
AcDbEntity
8
0
100
AcDbLine
10
-98.899999999999991
20
0.90000000000000036
30
0
11
-25.09999999999998
21
0.89999999999999858
31
0
0
LINE
5
129
100
AcDbEntity
8
0
100
AcDbLine
10
12.528907257627411
20
-8.9228322038663084
30
0
11
22.037067242080333
21
-35.046287061714885
31
0
0
LWPOLYLINE
5
130
100
AcDbEntity
8
0
100
AcDbPolyline
90
9
70
1
43
0.0
10
19.764981132793693
20
-36.990434101850511
10
11.231172336418298
20
-13.543987131863503
10
9.5386467689350312
20
-8.8938113533528842
42
0.41421356237309503
10
8.8977903868792598
20
-8.5949751146227502
10
7.018405145307308
20
-9.2790154012740782
42
0.41421356237309204
10
6.7195689065773951
20
-9.9198717833297643
10
16.945971192013658
20
-38.016681144828979
42
0.41421356237309748
10
17.586827574069417
20
-38.315517383559111
10
19.45735728816474
20
-37.634700245317994
42
0.41991417509495033
0
CIRCLE
5
131
100
AcDbEntity
8
0
100
AcDbCircle
10
-14.92311879134631
20
-7.1425889045465283
30
0
40
1
210
0
220
-0
230
1
0
CIRCLE
5
132
100
AcDbEntity
8
0
100
AcDbCircle
10
-4.7368507820291521
20
-3.4350905508903686
30
0
40
1
210
0
220
-0
230
1
0
CIRCLE
5
133
100
AcDbEntity
8
0
100
AcDbCircle
10
-16.819432485414222
20
-8.3648795302532406
30
0
40
0.500000000000002
210
0
220
-0
230
1
0
CIRCLE
5
134
100
AcDbEntity
8
0
100
AcDbCircle
10
-2.498516944636914
20
-3.1524925459700537
30
0
40
0.500000000000002
210
0
220
-0
230
1
0
LINE
5
135
100
AcDbEntity
8
0
100
AcDbLine
10
-14.92311879134631
20
-7.1425889045465283
30
0
11
-16.990442557076392
21
-7.8950332198600428
31
0
0
LINE
5
136
100
AcDbEntity
8
0
100
AcDbLine
10
-16.990442557076392
20
-7.8950332198600428
30
0
11
-16.819432485414222
21
-8.3648795302532406
31
0
0
LINE
5
137
100
AcDbEntity
8
0
100
AcDbLine
10
-4.7368507820291521
20
-3.4350905508903686
30
0
11
-2.6695270162990772
21
-2.6826462355768541
31
0
0
LINE
5
138
100
AcDbEntity
8
0
100
AcDbLine
10
-2.6695270162990772
20
-2.6826462355768541
30
0
11
-2.498516944636914
21
-3.1524925459700537
31
0
0
CIRCLE
5
139
100
AcDbEntity
8
0
100
AcDbCircle
10
9.6320302116839809
20
-42.984983886092692
30
0
40
0.49999999999999878
210
0
220
-0
230
1
0
CIRCLE
5
140
100
AcDbEntity
8
0
100
AcDbCircle
10
0.084753184499138934
20
-46.459908542281418
30
0
40
0.49999999999999878
210
0
220
-0
230
1
0
LINE
5
141
100
AcDbEntity
8
0
100
AcDbLine
10
4.9701638651647562
20
11.844644586378383
30
0
11
12.528907257627411
21
-8.9228322038663102
31
0
0
LINE
5
142
100
AcDbEntity
8
0
100
AcDbLine
10
7.94237723872551
20
-9.4748059482152076
30
0
11
9.3519161699043742
21
-8.9617757332267054
31
0
0
LINE
5
143
100
AcDbEntity
8
0
100
AcDbLine
10
19.578318455341879
20
-37.05858509472543
30
0
11
18.168779524163014
21
-37.571615309713934
31
0
0
ENDSEC
0
SECTION
2
OBJECTS
0
DICTIONARY
5
C
100
AcDbDictionary
3
ACAD_GROUP
350
D
3
ACAD_MLINESTYLE
350
17
0
DICTIONARY
5
D
100
AcDbDictionary
0
DICTIONARY
5
1A
330
C
100
AcDbDictionary
0
DICTIONARY
5
17
100
AcDbDictionary
0
ENDSEC
0
EOF
