0
SECTION
2
HEADER
9
$INSUNITS
70
4
9
$ACADVER
1
AC1014
9
$HANDSEED
5
FFFF
0
ENDSEC
0
SECTION
2
TABLES
0
TABLE
2
VPORT
5
8
100
AcDbSymbolTable
0
ENDTAB
0
TABLE
2
LTYPE
5
5
100
AcDbSymbolTable
0
LTYPE
5
14
100
AcDbSymbolTableRecord
100
AcDbLinetypeTableRecord
2
BYBLOCK
70
0
0
LTYPE
5
15
100
AcDbSymbolTableRecord
100
AcDbLinetypeTableRecord
2
BYLAYER
70
0
0
ENDTAB
0
TABLE
2
LAYER
5
2
100
AcDbSymbolTable
70
2
0
LAYER
5
50
100
AcDbSymbolTableRecord
100
AcDbLayerTableRecord
2
0
70
0
6
CONTINUOUS
0
ENDTAB
0
TABLE
2
STYLE
5
3
100
AcDbSymbolTable
70
1
0
STYLE
5
11
100
AcDbSymbolTableRecord
100
AcDbTextStyleTableRecord
2
STANDARD
70
0
0
ENDTAB
0
TABLE
2
VIEW
5
6
100
AcDbSymbolTable
70
0
0
ENDTAB
0
TABLE
2
UCS
5
7
100
AcDbSymbolTable
70
0
0
ENDTAB
0
TABLE
2
APPID
5
9
100
AcDbSymbolTable
70
2
0
APPID
5
12
100
AcDbSymbolTableRecord
100
AcDbRegAppTableRecord
2
ACAD
70
0
0
ENDTAB
0
TABLE
2
DIMSTYLE
5
A
100
AcDbSymbolTable
70
1
0
ENDTAB
0
TABLE
2
BLOCK_RECORD
5
1
100
AcDbSymbolTable
70
1
0
BLOCK_RECORD
5
1F
100
AcDbSymbolTableRecord
100
AcDbBlockTableRecord
2
*MODEL_SPACE
0
BLOCK_RECORD
5
1B
100
AcDbSymbolTableRecord
100
AcDbBlockTableRecord
2
*PAPER_SPACE
0
ENDTAB
0
ENDSEC
0
SECTION
2
BLOCKS
0
BLOCK
5
20
100
AcDbEntity
100
AcDbBlockBegin
2
*MODEL_SPACE
0
ENDBLK
5
21
100
AcDbEntity
100
AcDbBlockEnd
0
BLOCK
5
1C
100
AcDbEntity
100
AcDbBlockBegin
2
*PAPER_SPACE
0
ENDBLK
5
1D
100
AcDbEntity
100
AcDbBlockEnd
0
ENDSEC
0
SECTION
2
ENTITIES
0
SPLINE
5
100
100
AcDbEntity
8
0
100
AcDbSpline
70
0
71
3
72
22
73
18
74
0
42
0.000000001
43
0.0000000001
44
0.0000000001
40
0
40
0
40
0
40
0
40
1.4919501803707793
40
1.4919501803707793
40
3.5035667842682208
40
3.5035667842682208
40
3.9436202212868094
40
3.9436202212868094
40
4.3635111781495315
40
4.3635111781495315
40
4.9679694539027324
40
4.9679694539027324
40
6.4732628869273263
40
6.4732628869273263
40
8.350331311018266
40
8.350331311018266
40
10.352245398510092
40
10.352245398510092
40
10.352245398510092
40
10.352245398510092
10
4.5897927036608595
20
-70.397093115935917
30
0
10
0.78853722432407292
20
-73.603781353877025
30
0
10
-1.4789829098941145
20
-76.782526308291324
30
0
10
-5.149171545783612
20
-83.469226591291189
30
0
10
-5.8986965528521917
20
-86.566825240573181
30
0
10
-7.8029229763761263
20
-88.41863622479336
30
0
10
-8.1834826729982542
20
-88.675360848732453
30
0
10
-9.050292758393752
20
-89.017966757330612
30
0
10
-9.5155290626465074
20
-89.105521231573576
30
0
10
-10.786821941533864
20
-89.152282617583282
30
0
10
-11.652319552639394
20
-89.037692619964517
30
0
10
-15.197296535089048
20
-88.227271719065499
30
0
10
-18.582075187219274
20
-86.935593009157174
30
0
10
-28.395645260432552
20
-83.706570856688799
30
0
10
-34.598171054936564
20
-81.94115358062291
30
0
10
-50.16422767984281
20
-79.802077727136279
30
0
10
-57.113228152829478
20
-79.88585086143793
30
0
10
-63.399999999999991
20
-79.913564211404747
30
0
0
SPLINE
5
101
100
AcDbEntity
8
0
100
AcDbSpline
70
0
71
3
72
12
73
8
74
0
42
0.000000001
43
0.0000000001
44
0.0000000001
40
0
40
0
40
0
40
0
40
2.102260163081787
40
2.102260163081787
40
4.0952714070911114
40
4.0952714070911114
40
6.3755742587916879
40
6.3755742587916879
40
6.3755742587916879
40
6.3755742587916879
10
-63.399999999999999
20
-79.913564211404733
30
0
10
-70.407465791924878
20
-79.944454524683636
30
0
10
-76.110145944456832
20
-79.903445896726282
30
0
10
-89.708608078120292
20
-76.837210133386378
30
0
10
-95.193752105043984
20
-74.481616362532492
30
0
10
-111.67023586320312
20
-70.218419276623052
30
0
10
-121.30542678780465
20
-68.961682397780407
30
0
10
-134.90437655113774
20
-68.902165328717913
30
0
0
LINE
5
102
100
AcDbEntity
8
0
100
AcDbLine
10
-135.90000000000001
20
-67.902174905863689
30
0
11
-135.90000000000001
21
-19.100000000000009
31
0
0
LINE
5
103
100
AcDbEntity
8
0
100
AcDbLine
10
-134.90000000000001
20
-18.100000000000005
30
0
11
-118.90000000000002
21
-18.100000000000005
31
0
0
LINE
5
104
100
AcDbEntity
8
0
100
AcDbLine
10
-117.90000000000001
20
-17.100000000000001
30
0
11
-117.90000000000003
21
-7.1000000000000103
31
0
0
LINE
5
105
100
AcDbEntity
8
0
100
AcDbLine
10
-116.90000000000003
20
-6.1000000000000085
30
0
11
-100.89999999999998
21
-6.0999999999999943
31
0
0
LINE
5
106
100
AcDbEntity
8
0
100
AcDbLine
10
-99.899999999999977
20
-5.0999999999999961
30
0
11
-99.899999999999977
21
-0.10000000000000231
31
0
0
LINE
5
107
100
AcDbEntity
8
0
100
AcDbLine
10
-98.899999999999991
20
0.89999999999999869
30
0
11
-25.099999999999998
21
0.89999999999999969
31
0
0
LINE
5
108
100
AcDbEntity
8
0
100
AcDbLine
10
-8.6670928359190853
20
-1.1232549904456288
30
0
11
-10.196726958075072
21
3.5844747652153996
31
0
0
LINE
5
109
100
AcDbEntity
8
0
100
AcDbLine
10
-10.196726958075072
20
3.5844747652153996
30
0
11
-7.2769834530489375
21
4.5331569379464884
31
0
0
LINE
5
110
100
AcDbEntity
8
0
100
AcDbLine
10
-5.6766900944979053
20
3.7177667451078236
30
0
11
3.7421478940504613
21
-25.270435871568573
31
0
0
LINE
5
111
100
AcDbEntity
8
0
100
AcDbLine
10
2.9267577012117907
20
-26.870729230119608
30
0
11
-11.567343607126407
21
-31.580148224393806
31
0
0
LINE
5
112
100
AcDbEntity
8
0
100
AcDbLine
10
-13.16763696567744
20
-30.764758031555143
30
0
11
-22.586474954225807
21
-1.7765554148787466
31
0
0
LINE
5
113
100
AcDbEntity
8
0
100
AcDbLine
10
-21.771084761387137
20
-0.17626205632771175
30
0
11
-18.851341256361003
21
0.77242011640337727
31
0
0
LINE
5
114
100
AcDbEntity
8
0
100
AcDbLine
10
-18.851341256361003
20
0.77242011640337727
30
0
11
-17.32170713420502
21
-3.9353096392576514
31
0
0
LINE
5
115
100
AcDbEntity
8
0
100
AcDbLine
10
-63.100000000000009
20
-17.399999999999999
30
0
11
-77.900000000000006
21
-17.399999999999999
31
0
0
LINE
5
116
100
AcDbEntity
8
0
100
AcDbLine
10
-77.900000000000006
20
-17.399999999999999
30
0
11
-77.900000000000006
21
-3.600000000000001
31
0
0
LINE
5
117
100
AcDbEntity
8
0
100
AcDbLine
10
-63.100000000000009
20
-3.6000000000000005
30
0
11
-63.100000000000009
21
-17.399999999999999
31
0
0
LINE
5
118
100
AcDbEntity
8
0
100
AcDbLine
10
-77.900000000000006
20
-3.6000000000000005
30
0
11
-63.100000000000009
21
-3.6000000000000005
31
0
0
CIRCLE
5
119
100
AcDbEntity
8
0
100
AcDbCircle
10
-123.40000000000002
20
-21.600000000000001
30
0
40
1.1499999999999999
210
0
220
0
230
1
0
CIRCLE
5
120
100
AcDbEntity
8
0
100
AcDbCircle
10
-123.40000000000003
20
-65.40000000000002
30
0
40
1.1499999999999999
210
0
220
0
230
1
0
CIRCLE
5
121
100
AcDbEntity
8
0
100
AcDbCircle
10
-66.899999999999991
20
-57.400000000000006
30
0
40
1.1499999999999999
210
0
220
0
230
1
0
CIRCLE
5
122
100
AcDbEntity
8
0
100
AcDbCircle
10
13.49151124591463
20
-59.661860926728664
30
0
40
1.1499999999999999
210
0
220
0
230
1
0
CIRCLE
5
123
100
AcDbEntity
8
0
100
AcDbCircle
10
-87.40000000000002
20
-2.6000000000000001
30
0
40
1.1499999999999999
210
0
220
0
230
1
0
CIRCLE
5
124
100
AcDbEntity
8
0
100
AcDbCircle
10
-34.500000000000007
20
-3.5999999999999996
30
0
40
1.1499999999999999
210
0
220
0
230
1
0
CIRCLE
5
125
100
AcDbEntity
8
0
100
AcDbCircle
10
-1.8045755953203304
20
4.789024436351216
30
0
40
1.1499999999999999
210
0
220
0
230
1
0
CIRCLE
5
126
100
AcDbEntity
8
0
100
AcDbCircle
10
-21.600000000000001
20
-57.139987012601416
30
0
40
1.1499999999999999
210
0
220
0
230
1
0
LINE
5
127
100
AcDbEntity
8
0
100
AcDbLine
10
5.1978453128761544
20
10.744366695571305
30
0
11
27.763250549925811
21
-58.704809512187936
31
0
0
SPLINE
5
128
100
AcDbEntity
8
0
100
AcDbSpline
70
0
71
3
72
10
73
6
74
0
42
0.000000001
43
0.0000000001
44
0.0000000001
40
0
40
0
40
0
40
0
40
1.4741975276615735
40
1.4741975276615735
40
2.5802069040301294
40
2.5802069040301294
40
2.5802069040301294
40
2.5802069040301294
10
27.763250549925814
20
-58.704809512187921
30
0
10
23.089766666630005
20
-60.223316475897803
30
0
10
18.305995287463478
20
-62.060244145508719
30
0
10
10.6308508951733
20
-66.007403762921598
30
0
10
7.4247147795332769
20
-68.0055908016096
30
0
10
4.5897927036611534
20
-70.397093115935675
30
0
0
LINE
5
129
100
AcDbEntity
8
0
100
AcDbLine
10
-25.099999999999998
20
0.89999999999999969
30
0
11
5.1978453128761544
21
10.744366695571305
31
0
0
SPLINE
5
130
100
AcDbEntity
8
0
100
AcDbSpline
70
0
71
3
72
14
73
10
74
0
42
0.000000001
43
0.0000000001
44
0.0000000001
40
0
40
0
40
0
40
0
40
0.039064447338693263
40
0.039064447338693263
40
0.078128894677385471
40
0.078128894677385471
40
0.11719334201607794
40
0.11719334201607794
40
0.1571408566702929
40
0.1571408566702929
40
0.1571408566702929
40
0.1571408566702929
10
-135.90000000000001
20
-67.902174905863689
30
0
10
-135.90000000000001
20
-68.032389730326003
30
0
10
-135.87456614923536
20
-68.161359630093884
30
0
10
-135.77569393656549
20
-68.402290922376068
30
0
10
-135.70320084690286
20
-68.51194888041843
30
0
10
-135.52026153820495
20
-68.697304785023945
30
0
10
-135.41156431867043
20
-68.771230628112278
30
0
10
-135.16924295591556
20
-68.874409129410068
30
0
10
-135.03753365804124
20
-68.901582554248876
30
0
10
-134.90437655113774
20
-68.902165328717899
30
0
0
ARC
5
131
100
AcDbEntity
8
0
100
AcDbCircle
10
-134.90000000000001
20
-19.100000000000005
30
0
40
1.0000000000000009
210
0
220
-0
230
1
100
AcDbArc
50
90
51
180
0
ARC
5
132
100
AcDbEntity
8
0
100
AcDbCircle
10
-118.90000000000002
20
-17.100000000000001
30
0
40
1.0000000000000031
210
0
220
0
230
1
100
AcDbArc
50
-90
51
0
0
ARC
5
133
100
AcDbEntity
8
0
100
AcDbCircle
10
-116.90000000000003
20
-7.1000000000000094
30
0
40
1.0000000000000009
210
0
220
-0
230
1
100
AcDbArc
50
90
51
180
0
ARC
5
134
100
AcDbEntity
8
0
100
AcDbCircle
10
-100.89999999999998
20
-5.0999999999999925
30
0
40
1.000000000000002
210
0
220
0
230
1
100
AcDbArc
50
270
51
360
0
ARC
5
135
100
AcDbEntity
8
0
100
AcDbCircle
10
-98.899999999999991
20
-0.10000000000000134
30
0
40
1
210
0
220
-0
230
1
100
AcDbArc
50
90
51
180
0
CIRCLE
5
136
100
AcDbEntity
8
0
100
AcDbCircle
10
9.9874118997366512
20
-44.070693250106807
30
0
40
0.49999999999999878
210
0
220
-0
230
1
0
CIRCLE
5
137
100
AcDbEntity
8
0
100
AcDbCircle
10
0.32467769417790227
20
-47.210305912956223
30
0
40
0.49999999999999878
210
0
220
-0
230
1
0
ENDSEC
0
SECTION
2
OBJECTS
0
DICTIONARY
5
C
100
AcDbDictionary
3
ACAD_GROUP
350
D
3
ACAD_MLINESTYLE
350
17
0
DICTIONARY
5
D
100
AcDbDictionary
0
DICTIONARY
5
1A
330
C
100
AcDbDictionary
0
DICTIONARY
5
17
100
AcDbDictionary
0
ENDSEC
0
EOF
