0
SECTION
2
HEADER
9
$INSUNITS
70
4
9
$ACADVER
1
AC1014
9
$HANDSEED
5
FFFF
0
ENDSEC
0
SECTION
2
TABLES
0
TABLE
2
VPORT
5
8
100
AcDbSymbolTable
0
ENDTAB
0
TABLE
2
LTYPE
5
5
100
AcDbSymbolTable
0
LTYPE
5
14
100
AcDbSymbolTableRecord
100
AcDbLinetypeTableRecord
2
BYBLOCK
70
0
0
LTYPE
5
15
100
AcDbSymbolTableRecord
100
AcDbLinetypeTableRecord
2
BYLAYER
70
0
0
ENDTAB
0
TABLE
2
LAYER
5
2
100
AcDbSymbolTable
70
2
0
LAYER
5
50
100
AcDbSymbolTableRecord
100
AcDbLayerTableRecord
2
0
70
0
6
CONTINUOUS
0
ENDTAB
0
TABLE
2
STYLE
5
3
100
AcDbSymbolTable
70
1
0
STYLE
5
11
100
AcDbSymbolTableRecord
100
AcDbTextStyleTableRecord
2
STANDARD
70
0
0
ENDTAB
0
TABLE
2
VIEW
5
6
100
AcDbSymbolTable
70
0
0
ENDTAB
0
TABLE
2
UCS
5
7
100
AcDbSymbolTable
70
0
0
ENDTAB
0
TABLE
2
APPID
5
9
100
AcDbSymbolTable
70
2
0
APPID
5
12
100
AcDbSymbolTableRecord
100
AcDbRegAppTableRecord
2
ACAD
70
0
0
ENDTAB
0
TABLE
2
DIMSTYLE
5
A
100
AcDbSymbolTable
70
1
0
ENDTAB
0
TABLE
2
BLOCK_RECORD
5
1
100
AcDbSymbolTable
70
1
0
BLOCK_RECORD
5
1F
100
AcDbSymbolTableRecord
100
AcDbBlockTableRecord
2
*MODEL_SPACE
0
BLOCK_RECORD
5
1B
100
AcDbSymbolTableRecord
100
AcDbBlockTableRecord
2
*PAPER_SPACE
0
ENDTAB
0
ENDSEC
0
SECTION
2
BLOCKS
0
BLOCK
5
20
100
AcDbEntity
100
AcDbBlockBegin
2
*MODEL_SPACE
0
ENDBLK
5
21
100
AcDbEntity
100
AcDbBlockEnd
0
BLOCK
5
1C
100
AcDbEntity
100
AcDbBlockBegin
2
*PAPER_SPACE
0
ENDBLK
5
1D
100
AcDbEntity
100
AcDbBlockEnd
0
ENDSEC
0
SECTION
2
ENTITIES
0
LINE
5
100
100
AcDbEntity
8
0
100
AcDbLine
10
-63.100000000000009
20
-17.399999999999999
30
0
11
-77.900000000000006
21
-17.399999999999999
31
0
0
LINE
5
101
100
AcDbEntity
8
0
100
AcDbLine
10
-77.900000000000006
20
-17.399999999999999
30
0
11
-77.900000000000006
21
-3.600000000000001
31
0
0
LINE
5
102
100
AcDbEntity
8
0
100
AcDbLine
10
-63.100000000000009
20
-3.6000000000000005
30
0
11
-63.100000000000009
21
-17.399999999999999
31
0
0
LINE
5
103
100
AcDbEntity
8
0
100
AcDbLine
10
-77.900000000000006
20
-3.6000000000000005
30
0
11
-63.100000000000009
21
-3.6000000000000005
31
0
0
CIRCLE
5
104
100
AcDbEntity
8
0
100
AcDbCircle
10
-123.40000000000002
20
-21.600000000000001
30
0
40
1.1499999999999999
210
0
220
0
230
1
0
CIRCLE
5
105
100
AcDbEntity
8
0
100
AcDbCircle
10
-123.40000000000003
20
-65.40000000000002
30
0
40
1.1499999999999999
210
0
220
0
230
1
0
CIRCLE
5
106
100
AcDbEntity
8
0
100
AcDbCircle
10
-66.899999999999991
20
-57.400000000000006
30
0
40
1.1499999999999999
210
0
220
0
230
1
0
CIRCLE
5
107
100
AcDbEntity
8
0
100
AcDbCircle
10
8.5927514784496246
20
-62.538204641437957
30
0
40
1.1499999999999999
210
0
220
0
230
1
0
CIRCLE
5
108
100
AcDbEntity
8
0
100
AcDbCircle
10
-87.40000000000002
20
-2.6000000000000001
30
0
40
1.1499999999999999
210
0
220
0
230
1
0
CIRCLE
5
109
100
AcDbEntity
8
0
100
AcDbCircle
10
-43.100000000000009
20
-2.6000000000000014
30
0
40
1.1499999999999999
210
0
220
0
230
1
0
CIRCLE
5
110
100
AcDbEntity
8
0
100
AcDbCircle
10
1.1845571621339099
20
5.760252543903067
30
0
40
1.1499999999999999
210
0
220
0
230
1
0
CIRCLE
5
111
100
AcDbEntity
8
0
100
AcDbCircle
10
-21.600000000000005
20
-56.923566303048609
30
0
40
1.1499999999999999
210
0
220
0
230
1
0
LINE
5
112
100
AcDbEntity
8
0
100
AcDbLine
10
19.813390123227737
20
-40.247162055995958
30
0
11
26.0052129937704
21
-59.30363336977112
31
0
0
SPLINE
5
113
100
AcDbEntity
8
0
100
AcDbSpline
70
0
71
3
72
10
73
6
74
0
42
0.000000001
43
0.0000000001
44
0.0000000001
40
0
40
0
40
0
40
0
40
1.3950020335099984
40
1.3950020335099984
40
2.4442090172148276
40
2.4442090172148276
40
2.4442090172148276
40
2.4442090172148276
10
26.0052129937704
20
-59.30363336977112
30
0
10
21.545083400212537
20
-60.618854661997347
30
0
10
16.968025735225659
20
-62.242063974432412
30
0
10
9.6179955039280287
20
-65.821781412238224
30
0
10
6.5383111489363372
20
-67.663063574179091
30
0
10
3.8254199458509741
20
-69.902281706797979
30
0
0
LINE
5
114
100
AcDbEntity
8
0
100
AcDbLine
10
-25.09999999999998
20
0.89999999999999858
30
0
11
3.4316954888546292
21
10.170509831248431
31
0
0
SPLINE
5
115
100
AcDbEntity
8
0
100
AcDbSpline
70
0
71
3
72
24
73
20
74
0
42
0.000000001
43
0.0000000001
44
0.0000000001
40
0
40
0
40
0
40
0
40
1.3526184936413768
40
1.3526184936413768
40
2.9836660000395581
40
2.9836660000395581
40
3.6585415746522765
40
3.6585415746522765
40
4.074740862407495
40
4.074740862407495
40
4.4901512514723603
40
4.4901512514723603
40
5.1098139688711317
40
5.1098139688711317
40
6.682307624079316
40
6.682307624079316
40
8.642735064772701
40
8.642735064772701
40
10.733736450360528
40
10.733736450360528
40
10.733736450360528
40
10.733736450360528
10
3.8254199458507006
20
-69.902281706798192
30
0
10
0.34818885124707155
20
-72.772385347330314
30
0
10
-1.7753861032558136
20
-75.669580179958317
30
0
10
-4.9725591466391901
20
-81.536650332408243
30
0
10
-5.7213741906028792
20
-84.376944439103539
30
0
10
-6.9882107613867692
20
-87.146801775805017
30
0
10
-7.3823456094736786
20
-87.802748576815929
30
0
10
-8.1929490042858681
20
-88.576435706525558
30
0
10
-8.5385735238476261
20
-88.799847035544616
30
0
10
-9.3358805475696336
20
-89.105321767777085
30
0
10
-9.7753828686393351
20
-89.183420228235164
30
0
10
-10.997283172820946
20
-89.222760440089843
30
0
10
-11.846962729810453
20
-89.107374097280655
30
0
10
-15.381301175716986
20
-88.29306547894889
30
0
10
-18.805479043020167
20
-86.984859297431072
30
0
10
-28.716521429087432
20
-83.716360756742901
30
0
10
-34.918191344221242
20
-81.948656054392444
30
0
10
-50.320244686534537
20
-79.806695642444666
30
0
10
-57.186584982075026
20
-79.881549002683187
30
0
10
-63.399999999999999
20
-79.915740848908229
30
0
0
SPLINE
5
116
100
AcDbEntity
8
0
100
AcDbSpline
70
0
71
3
72
12
73
8
74
0
42
0.000000001
43
0.0000000001
44
0.0000000001
40
0
40
0
40
0
40
0
40
2.0529422543065006
40
2.0529422543065006
40
4.073678109106023
40
4.073678109106023
40
6.2334139361685796
40
6.2334139361685796
40
6.2334139361685796
40
6.2334139361685796
10
-63.399999999999999
20
-79.915740848908229
30
0
10
-70.24303723808822
20
-79.953397447780503
30
0
10
-75.874667594657524
20
-79.939576898257613
30
0
10
-89.406910484836231
20
-76.984075267889608
30
0
10
-94.914411381823896
20
-74.603042449544617
30
0
10
-110.86494418210006
20
-70.417295828422226
30
0
10
-120.44310140738155
20
-68.965988597427398
30
0
10
-134.90441212373463
20
-68.902182884130838
30
0
0
SPLINE
5
117
100
AcDbEntity
8
0
100
AcDbSpline
70
0
71
3
72
14
73
10
74
0
42
0.000000001
43
0.0000000001
44
0.0000000001
40
0
40
0
40
0
40
0
40
0.039064447338693291
40
0.039064447338693291
40
0.078128894677385541
40
0.078128894677385541
40
0.11719334201607806
40
0.11719334201607806
40
0.15713726434161723
40
0.15713726434161723
40
0.15713726434161723
40
0.15713726434161723
10
-135.90000000000006
20
-67.902192617596143
30
0
10
-135.90000000000006
20
-68.032407442058457
30
0
10
-135.87456614923542
20
-68.161377341826338
30
0
10
-135.77569393656552
20
-68.402308634108522
30
0
10
-135.70320084690292
20
-68.511966592150884
30
0
10
-135.52026153820498
20
-68.697322496756399
30
0
10
-135.41156431867049
20
-68.771248339844732
30
0
10
-135.16925397320918
20
-68.874422150066906
30
0
10
-135.03755723551055
20
-68.901595425705025
30
0
10
-134.90441212373472
20
-68.902182884130852
30
0
0
LINE
5
118
100
AcDbEntity
8
0
100
AcDbLine
10
-135.90000000000001
20
-67.902191954479107
30
0
11
-135.90000000000001
21
-19.100000000000009
31
0
0
ARC
5
119
100
AcDbEntity
8
0
100
AcDbCircle
10
-134.90000000000001
20
-19.100000000000009
30
0
40
1.0000000000000009
210
0
220
-0
230
1
100
AcDbArc
50
90
51
180
0
LINE
5
120
100
AcDbEntity
8
0
100
AcDbLine
10
-134.90000000000001
20
-18.100000000000009
30
0
11
-118.90000000000002
21
-18.100000000000009
31
0
0
ARC
5
121
100
AcDbEntity
8
0
100
AcDbCircle
10
-118.90000000000002
20
-17.100000000000005
30
0
40
1.0000000000000031
210
0
220
0
230
1
100
AcDbArc
50
-90
51
0
0
LINE
5
122
100
AcDbEntity
8
0
100
AcDbLine
10
-117.90000000000003
20
-17.100000000000005
30
0
11
-117.90000000000003
21
-7.100000000000013
31
0
0
ARC
5
123
100
AcDbEntity
8
0
100
AcDbCircle
10
-116.90000000000003
20
-7.1000000000000121
30
0
40
0.99999999999999978
210
0
220
-0
230
1
100
AcDbArc
50
90
51
180
0
LINE
5
124
100
AcDbEntity
8
0
100
AcDbLine
10
-116.90000000000003
20
-6.1000000000000121
30
0
11
-100.89999999999998
21
-6.0999999999999961
31
0
0
ARC
5
125
100
AcDbEntity
8
0
100
AcDbCircle
10
-100.89999999999998
20
-5.0999999999999943
30
0
40
1.000000000000002
210
0
220
0
230
1
100
AcDbArc
50
270
51
360
0
LINE
5
126
100
AcDbEntity
8
0
100
AcDbLine
10
-99.899999999999977
20
-5.0999999999999979
30
0
11
-99.899999999999977
21
-0.10000000000000009
31
0
0
ARC
5
127
100
AcDbEntity
8
0
100
AcDbCircle
10
-98.899999999999991
20
-0.099999999999999395
30
0
40
0.99999999999999978
210
0
220
-0
230
1
100
AcDbArc
50
90
51
180
0
LINE
5
128
100
AcDbEntity
8
0
100
AcDbLine
10
-98.899999999999991
20
0.90000000000000036
30
0
11
-25.09999999999998
21
0.89999999999999858
31
0
0
LINE
5
129
100
AcDbEntity
8
0
100
AcDbLine
10
11.222717679604507
20
-13.807790902990554
30
0
11
19.813390123227737
21
-40.247162055995958
31
0
0
LWPOLYLINE
5
130
100
AcDbEntity
8
0
100
AcDbPolyline
90
10
70
1
43
0.0
10
17.135821860815476
20
-41.067444632106209
10
8.514218369750564
20
-14.532877503601958
10
8.2507424396031208
20
-13.721981970945208
42
0.41421356237309481
10
7.6207056842680787
20
-13.400962209985096
10
5.7185926516777661
20
-14.018996198734966
42
0.41421356237309381
10
5.3975728907176581
20
-14.649032954070007
10
14.606279323090764
20
-42.990517139665741
42
0.41421356237309342
10
15.236316078425789
20
-43.311536900625846
10
17.140075873878644
20
-42.692967846186932
42
0.41319962924801218
10
17.459449798446052
20
-42.063469007924532
0
LINE
5
131
100
AcDbEntity
8
0
100
AcDbLine
10
3.4316954888546292
20
10.170509831248431
30
0
11
11.222717679604507
21
-13.807790902990554
31
0
0
LINE
5
132
100
AcDbEntity
8
0
100
AcDbLine
10
20.276915614790141
20
-41.673746830438688
30
0
11
17.140075873878644
21
-42.692967846186932
31
0
0
LINE
5
133
100
AcDbEntity
8
0
100
AcDbLine
10
10.759192188042109
20
-12.381206128547817
30
0
11
7.6207056842680787
21
-13.400962209985096
31
0
0
CIRCLE
5
134
100
AcDbEntity
8
0
100
AcDbCircle
10
-16.073247927561834
20
-7.3569831493032742
30
0
40
1
210
0
220
-0
230
1
0
CIRCLE
5
135
100
AcDbEntity
8
0
100
AcDbCircle
10
-5.7637952909223031
20
-4.0072389302788372
30
0
40
1
210
0
220
-0
230
1
0
CIRCLE
5
136
100
AcDbEntity
8
0
100
AcDbCircle
10
-18.011063766223696
20
-8.5123487950757344
30
0
40
0.500000000000002
210
0
220
-0
230
1
0
CIRCLE
5
137
100
AcDbEntity
8
0
100
AcDbCircle
10
-3.5169624578854908
20
-3.8029298008015342
30
0
40
0.500000000000002
210
0
220
-0
230
1
0
LINE
5
138
100
AcDbEntity
8
0
100
AcDbLine
10
-16.073247927561834
20
-7.3569831493032742
30
0
11
-18.165572263411171
21
-8.0368205369281593
31
0
0
LINE
5
139
100
AcDbEntity
8
0
100
AcDbLine
10
-18.165572263411171
20
-8.0368205369281593
30
0
11
-18.011063766223696
21
-8.5123487950757344
31
0
0
LINE
5
140
100
AcDbEntity
8
0
100
AcDbLine
10
-5.7637952909223031
20
-4.0072389302788372
30
0
11
-3.6714709550729641
21
-3.3274015426539574
31
0
0
LINE
5
141
100
AcDbEntity
8
0
100
AcDbLine
10
-3.6714709550729641
20
-3.3274015426539574
30
0
11
-3.5169624578854908
21
-3.8029298008015342
31
0
0
CIRCLE
5
142
100
AcDbEntity
8
0
100
AcDbCircle
10
7.1342423508511876
20
-44.997744233231643
30
0
40
0.49999999999999878
210
0
220
-0
230
1
0
CIRCLE
5
143
100
AcDbEntity
8
0
100
AcDbCircle
10
-2.5284918547075641
20
-48.137356896081059
30
0
40
0.49999999999999878
210
0
220
-0
230
1
0
ENDSEC
0
SECTION
2
OBJECTS
0
DICTIONARY
5
C
100
AcDbDictionary
3
ACAD_GROUP
350
D
3
ACAD_MLINESTYLE
350
17
0
DICTIONARY
5
D
100
AcDbDictionary
0
DICTIONARY
5
1A
330
C
100
AcDbDictionary
0
DICTIONARY
5
17
100
AcDbDictionary
0
ENDSEC
0
EOF
